<mxfile host="app.diagrams.net" modified="2021-08-19T06:15:28.165Z" agent="5.0 (Windows NT 10.0; Win64; x64) AppleWebKit/537.36 (KHTML, like Gecko) Chrome/92.0.4515.131 Safari/537.36" etag="j_8xkOJGJfANmkxN-x8Y" version="14.9.6" type="github">
  <diagram id="1ZXl0wsC-SSkzUZcBMEo" name="Page-1">
    <mxGraphModel dx="1422" dy="762" grid="1" gridSize="10" guides="1" tooltips="1" connect="1" arrows="1" fold="1" page="1" pageScale="1" pageWidth="827" pageHeight="1169" math="0" shadow="0">
      <root>
        <mxCell id="0" />
        <mxCell id="1" parent="0" />
        <mxCell id="i2m7fi9K6x_Wjw0wpvUl-1" value="" style="edgeStyle=orthogonalEdgeStyle;rounded=0;orthogonalLoop=1;jettySize=auto;html=1;" edge="1" parent="1" source="i2m7fi9K6x_Wjw0wpvUl-2" target="i2m7fi9K6x_Wjw0wpvUl-5">
          <mxGeometry relative="1" as="geometry" />
        </mxCell>
        <mxCell id="i2m7fi9K6x_Wjw0wpvUl-30" style="edgeStyle=orthogonalEdgeStyle;rounded=0;orthogonalLoop=1;jettySize=auto;html=1;entryX=0;entryY=0.5;entryDx=0;entryDy=0;" edge="1" parent="1" source="i2m7fi9K6x_Wjw0wpvUl-2" target="i2m7fi9K6x_Wjw0wpvUl-29">
          <mxGeometry relative="1" as="geometry" />
        </mxCell>
        <mxCell id="i2m7fi9K6x_Wjw0wpvUl-2" value="某个子公司发起返利供应商建档，填写曾用名，供应商名称，税号，证照" style="rounded=0;whiteSpace=wrap;html=1;" vertex="1" parent="1">
          <mxGeometry x="120" y="200" width="120" height="60" as="geometry" />
        </mxCell>
        <mxCell id="i2m7fi9K6x_Wjw0wpvUl-3" value="" style="edgeStyle=orthogonalEdgeStyle;rounded=0;orthogonalLoop=1;jettySize=auto;html=1;" edge="1" parent="1" source="i2m7fi9K6x_Wjw0wpvUl-5" target="i2m7fi9K6x_Wjw0wpvUl-9">
          <mxGeometry relative="1" as="geometry" />
        </mxCell>
        <mxCell id="i2m7fi9K6x_Wjw0wpvUl-4" style="edgeStyle=orthogonalEdgeStyle;rounded=0;orthogonalLoop=1;jettySize=auto;html=1;entryX=0;entryY=0.5;entryDx=0;entryDy=0;" edge="1" parent="1" source="i2m7fi9K6x_Wjw0wpvUl-5" target="i2m7fi9K6x_Wjw0wpvUl-28">
          <mxGeometry relative="1" as="geometry" />
        </mxCell>
        <mxCell id="i2m7fi9K6x_Wjw0wpvUl-5" value="供应商记录初始化为建档待审核状态" style="rounded=0;whiteSpace=wrap;html=1;" vertex="1" parent="1">
          <mxGeometry x="120" y="320" width="120" height="60" as="geometry" />
        </mxCell>
        <mxCell id="i2m7fi9K6x_Wjw0wpvUl-6" value="" style="edgeStyle=orthogonalEdgeStyle;rounded=0;orthogonalLoop=1;jettySize=auto;html=1;" edge="1" parent="1" source="i2m7fi9K6x_Wjw0wpvUl-9" target="i2m7fi9K6x_Wjw0wpvUl-12">
          <mxGeometry relative="1" as="geometry" />
        </mxCell>
        <mxCell id="i2m7fi9K6x_Wjw0wpvUl-7" style="edgeStyle=orthogonalEdgeStyle;rounded=0;orthogonalLoop=1;jettySize=auto;html=1;entryX=0.5;entryY=0;entryDx=0;entryDy=0;" edge="1" parent="1" source="i2m7fi9K6x_Wjw0wpvUl-9" target="i2m7fi9K6x_Wjw0wpvUl-27">
          <mxGeometry relative="1" as="geometry" />
        </mxCell>
        <mxCell id="i2m7fi9K6x_Wjw0wpvUl-8" value="否" style="edgeLabel;html=1;align=center;verticalAlign=middle;resizable=0;points=[];" vertex="1" connectable="0" parent="i2m7fi9K6x_Wjw0wpvUl-7">
          <mxGeometry x="-0.2833" y="2" relative="1" as="geometry">
            <mxPoint as="offset" />
          </mxGeometry>
        </mxCell>
        <mxCell id="i2m7fi9K6x_Wjw0wpvUl-9" value="集团审核" style="rhombus;whiteSpace=wrap;html=1;" vertex="1" parent="1">
          <mxGeometry x="120" y="440" width="120" height="80" as="geometry" />
        </mxCell>
        <mxCell id="i2m7fi9K6x_Wjw0wpvUl-10" style="edgeStyle=orthogonalEdgeStyle;rounded=0;orthogonalLoop=1;jettySize=auto;html=1;" edge="1" parent="1" source="i2m7fi9K6x_Wjw0wpvUl-12" target="i2m7fi9K6x_Wjw0wpvUl-20">
          <mxGeometry relative="1" as="geometry" />
        </mxCell>
        <mxCell id="i2m7fi9K6x_Wjw0wpvUl-11" value="是" style="edgeLabel;html=1;align=center;verticalAlign=middle;resizable=0;points=[];" vertex="1" connectable="0" parent="i2m7fi9K6x_Wjw0wpvUl-10">
          <mxGeometry x="-0.3385" relative="1" as="geometry">
            <mxPoint as="offset" />
          </mxGeometry>
        </mxCell>
        <mxCell id="i2m7fi9K6x_Wjw0wpvUl-12" value="供应商记录流转为已核准状态" style="rounded=0;whiteSpace=wrap;html=1;" vertex="1" parent="1">
          <mxGeometry x="120" y="580" width="120" height="60" as="geometry" />
        </mxCell>
        <mxCell id="i2m7fi9K6x_Wjw0wpvUl-13" value="" style="swimlane;startSize=0;dashed=1;fillColor=none;gradientColor=none;" vertex="1" parent="1">
          <mxGeometry x="60" y="750" width="460" height="550" as="geometry" />
        </mxCell>
        <mxCell id="i2m7fi9K6x_Wjw0wpvUl-14" style="edgeStyle=orthogonalEdgeStyle;rounded=0;orthogonalLoop=1;jettySize=auto;html=1;entryX=0.5;entryY=0;entryDx=0;entryDy=0;" edge="1" parent="i2m7fi9K6x_Wjw0wpvUl-13" source="i2m7fi9K6x_Wjw0wpvUl-16" target="i2m7fi9K6x_Wjw0wpvUl-18">
          <mxGeometry relative="1" as="geometry" />
        </mxCell>
        <mxCell id="i2m7fi9K6x_Wjw0wpvUl-15" style="edgeStyle=orthogonalEdgeStyle;rounded=0;orthogonalLoop=1;jettySize=auto;html=1;entryX=0.5;entryY=0;entryDx=0;entryDy=0;" edge="1" parent="i2m7fi9K6x_Wjw0wpvUl-13" source="i2m7fi9K6x_Wjw0wpvUl-16" target="i2m7fi9K6x_Wjw0wpvUl-25">
          <mxGeometry relative="1" as="geometry" />
        </mxCell>
        <mxCell id="i2m7fi9K6x_Wjw0wpvUl-16" value="子公司质管部审核" style="rhombus;whiteSpace=wrap;html=1;fillColor=none;" vertex="1" parent="i2m7fi9K6x_Wjw0wpvUl-13">
          <mxGeometry x="60" y="110" width="120" height="80" as="geometry" />
        </mxCell>
        <mxCell id="i2m7fi9K6x_Wjw0wpvUl-17" style="edgeStyle=orthogonalEdgeStyle;rounded=0;orthogonalLoop=1;jettySize=auto;html=1;entryX=0.5;entryY=0;entryDx=0;entryDy=0;" edge="1" parent="i2m7fi9K6x_Wjw0wpvUl-13" source="i2m7fi9K6x_Wjw0wpvUl-18" target="i2m7fi9K6x_Wjw0wpvUl-23">
          <mxGeometry relative="1" as="geometry" />
        </mxCell>
        <mxCell id="i2m7fi9K6x_Wjw0wpvUl-18" value="质量负责人审核状态" style="rounded=0;whiteSpace=wrap;html=1;" vertex="1" parent="i2m7fi9K6x_Wjw0wpvUl-13">
          <mxGeometry x="60" y="240" width="120" height="60" as="geometry" />
        </mxCell>
        <mxCell id="i2m7fi9K6x_Wjw0wpvUl-19" style="edgeStyle=orthogonalEdgeStyle;rounded=0;orthogonalLoop=1;jettySize=auto;html=1;entryX=0.5;entryY=0;entryDx=0;entryDy=0;" edge="1" parent="i2m7fi9K6x_Wjw0wpvUl-13" source="i2m7fi9K6x_Wjw0wpvUl-20" target="i2m7fi9K6x_Wjw0wpvUl-16">
          <mxGeometry relative="1" as="geometry" />
        </mxCell>
        <mxCell id="i2m7fi9K6x_Wjw0wpvUl-20" value="公司层状态设置为首营审核状态" style="rounded=0;whiteSpace=wrap;html=1;" vertex="1" parent="i2m7fi9K6x_Wjw0wpvUl-13">
          <mxGeometry x="60" y="20" width="120" height="60" as="geometry" />
        </mxCell>
        <mxCell id="i2m7fi9K6x_Wjw0wpvUl-21" style="edgeStyle=orthogonalEdgeStyle;rounded=0;orthogonalLoop=1;jettySize=auto;html=1;entryX=0.5;entryY=0;entryDx=0;entryDy=0;" edge="1" parent="i2m7fi9K6x_Wjw0wpvUl-13" source="i2m7fi9K6x_Wjw0wpvUl-23" target="i2m7fi9K6x_Wjw0wpvUl-24">
          <mxGeometry relative="1" as="geometry" />
        </mxCell>
        <mxCell id="i2m7fi9K6x_Wjw0wpvUl-22" style="edgeStyle=orthogonalEdgeStyle;rounded=0;orthogonalLoop=1;jettySize=auto;html=1;entryX=0.5;entryY=0;entryDx=0;entryDy=0;" edge="1" parent="i2m7fi9K6x_Wjw0wpvUl-13" source="i2m7fi9K6x_Wjw0wpvUl-23" target="i2m7fi9K6x_Wjw0wpvUl-25">
          <mxGeometry relative="1" as="geometry" />
        </mxCell>
        <mxCell id="i2m7fi9K6x_Wjw0wpvUl-23" value="质量负责人审核" style="rhombus;whiteSpace=wrap;html=1;fillColor=none;gradientColor=none;" vertex="1" parent="i2m7fi9K6x_Wjw0wpvUl-13">
          <mxGeometry x="60" y="330" width="120" height="80" as="geometry" />
        </mxCell>
        <mxCell id="i2m7fi9K6x_Wjw0wpvUl-24" value="设置为有效状态，并更新供应商的mtime，推送更新" style="rounded=0;whiteSpace=wrap;html=1;fillColor=none;gradientColor=none;" vertex="1" parent="i2m7fi9K6x_Wjw0wpvUl-13">
          <mxGeometry x="60" y="450" width="120" height="60" as="geometry" />
        </mxCell>
        <mxCell id="i2m7fi9K6x_Wjw0wpvUl-25" value="删除此公司的采购信息，变成未引入状态" style="rounded=0;whiteSpace=wrap;html=1;fillColor=none;gradientColor=none;" vertex="1" parent="i2m7fi9K6x_Wjw0wpvUl-13">
          <mxGeometry x="260" y="450" width="120" height="60" as="geometry" />
        </mxCell>
        <mxCell id="i2m7fi9K6x_Wjw0wpvUl-26" value="公司层状态" style="text;html=1;strokeColor=none;fillColor=none;align=center;verticalAlign=middle;whiteSpace=wrap;rounded=0;" vertex="1" parent="i2m7fi9K6x_Wjw0wpvUl-13">
          <mxGeometry x="250" y="20" width="170" height="20" as="geometry" />
        </mxCell>
        <mxCell id="i2m7fi9K6x_Wjw0wpvUl-27" value="供应商为已驳回状态" style="rounded=0;whiteSpace=wrap;html=1;fillColor=none;gradientColor=none;" vertex="1" parent="1">
          <mxGeometry x="320" y="580" width="120" height="60" as="geometry" />
        </mxCell>
        <mxCell id="i2m7fi9K6x_Wjw0wpvUl-28" value="公司层状态初始化为待集团审核状态" style="rounded=0;whiteSpace=wrap;html=1;dashed=1;" vertex="1" parent="1">
          <mxGeometry x="360" y="320" width="120" height="60" as="geometry" />
        </mxCell>
        <mxCell id="i2m7fi9K6x_Wjw0wpvUl-29" value="集团层标记为返利供应商" style="rounded=0;whiteSpace=wrap;html=1;dashed=1;" vertex="1" parent="1">
          <mxGeometry x="360" y="200" width="120" height="60" as="geometry" />
        </mxCell>
        <mxCell id="i2m7fi9K6x_Wjw0wpvUl-34" style="edgeStyle=orthogonalEdgeStyle;rounded=0;orthogonalLoop=1;jettySize=auto;html=1;" edge="1" parent="1" source="i2m7fi9K6x_Wjw0wpvUl-31" target="i2m7fi9K6x_Wjw0wpvUl-33">
          <mxGeometry relative="1" as="geometry" />
        </mxCell>
        <mxCell id="i2m7fi9K6x_Wjw0wpvUl-31" value="有别的子公司来引入" style="rounded=0;whiteSpace=wrap;html=1;" vertex="1" parent="1">
          <mxGeometry x="320" y="1360" width="120" height="60" as="geometry" />
        </mxCell>
        <mxCell id="i2m7fi9K6x_Wjw0wpvUl-32" style="edgeStyle=orthogonalEdgeStyle;rounded=0;orthogonalLoop=1;jettySize=auto;html=1;entryX=0.5;entryY=0;entryDx=0;entryDy=0;" edge="1" parent="1" source="i2m7fi9K6x_Wjw0wpvUl-25" target="i2m7fi9K6x_Wjw0wpvUl-31">
          <mxGeometry relative="1" as="geometry" />
        </mxCell>
        <mxCell id="i2m7fi9K6x_Wjw0wpvUl-33" value="按返利供应商直接引入" style="rounded=0;whiteSpace=wrap;html=1;" vertex="1" parent="1">
          <mxGeometry x="320" y="1470" width="120" height="60" as="geometry" />
        </mxCell>
        <mxCell id="i2m7fi9K6x_Wjw0wpvUl-39" style="edgeStyle=orthogonalEdgeStyle;rounded=0;orthogonalLoop=1;jettySize=auto;html=1;entryX=0.5;entryY=0;entryDx=0;entryDy=0;" edge="1" parent="1" source="i2m7fi9K6x_Wjw0wpvUl-35" target="i2m7fi9K6x_Wjw0wpvUl-37">
          <mxGeometry relative="1" as="geometry" />
        </mxCell>
        <mxCell id="i2m7fi9K6x_Wjw0wpvUl-40" style="edgeStyle=orthogonalEdgeStyle;rounded=0;orthogonalLoop=1;jettySize=auto;html=1;entryX=0.392;entryY=-0.017;entryDx=0;entryDy=0;entryPerimeter=0;" edge="1" parent="1" source="i2m7fi9K6x_Wjw0wpvUl-35" target="i2m7fi9K6x_Wjw0wpvUl-38">
          <mxGeometry relative="1" as="geometry" />
        </mxCell>
        <mxCell id="i2m7fi9K6x_Wjw0wpvUl-35" value="其他账号编辑为普通供应商" style="rounded=0;whiteSpace=wrap;html=1;" vertex="1" parent="1">
          <mxGeometry x="520" y="1360" width="120" height="60" as="geometry" />
        </mxCell>
        <mxCell id="i2m7fi9K6x_Wjw0wpvUl-36" style="edgeStyle=orthogonalEdgeStyle;rounded=0;orthogonalLoop=1;jettySize=auto;html=1;" edge="1" parent="1" source="i2m7fi9K6x_Wjw0wpvUl-25" target="i2m7fi9K6x_Wjw0wpvUl-35">
          <mxGeometry relative="1" as="geometry" />
        </mxCell>
        <mxCell id="i2m7fi9K6x_Wjw0wpvUl-37" value="按返利供应商引入，不可编辑" style="rounded=0;whiteSpace=wrap;html=1;" vertex="1" parent="1">
          <mxGeometry x="470" y="1470" width="120" height="60" as="geometry" />
        </mxCell>
        <mxCell id="i2m7fi9K6x_Wjw0wpvUl-38" value="按普通供应商引入" style="rounded=0;whiteSpace=wrap;html=1;" vertex="1" parent="1">
          <mxGeometry x="620" y="1470" width="120" height="60" as="geometry" />
        </mxCell>
      </root>
    </mxGraphModel>
  </diagram>
</mxfile>
